# Blender v2.79 (sub 0) OBJ File: ''
# www.blender.org
mtllib grassTile.mtl
o Circle
v 1.000000 -0.000000 0.577412
v 1.000000 0.129032 -0.577412
v 1.000000 0.000000 -0.577412
v -1.000000 -0.000000 0.577412
v 0.000000 0.129032 1.154825
v 0.000000 -0.000000 1.154825
v 0.000000 0.000000 -1.154825
v -1.000000 0.129032 -0.577412
v -1.000000 0.000000 -0.577412
v 0.000000 0.129032 -1.154825
v 1.000000 0.129032 0.577412
v -1.000000 0.129032 0.577412
v 0.904978 0.129032 -0.522545
v -0.904978 0.129032 0.522545
v 0.000000 0.129032 1.045091
v -0.904978 0.129032 -0.522545
v 0.000000 0.129032 -1.045091
v 0.904978 0.129032 0.522545
v 0.904978 0.189271 -0.522545
v -0.904978 0.189271 0.522545
v -0.000000 0.189271 1.045091
v -0.904978 0.189271 -0.522545
v -0.000000 0.189271 -1.045091
v 0.904978 0.189271 0.522545
v -0.000000 0.237163 0.529730
v 0.458710 0.237163 0.264865
v -0.458710 0.237163 -0.264865
v -0.458710 0.237163 0.264865
v 0.458710 0.237163 -0.264865
v -0.000000 0.237163 -0.529730
vt 0.937619 0.349183
vt 0.914708 0.153665
vt 0.937619 0.138286
vt 0.580824 0.350914
vt 0.760465 0.423145
vt 0.762121 0.449748
vt 0.756321 0.039452
vt 0.605271 0.151834
vt 0.580824 0.140017
vt 0.757978 0.066055
vt 0.913172 0.337366
vt 0.603735 0.335535
vt 0.897063 0.163743
vt 0.621379 0.325457
vt 0.760542 0.406395
vt 0.621137 0.161498
vt 0.757901 0.082804
vt 0.897305 0.327702
vt 0.750577 0.949415
vt 0.675998 0.948878
vt 0.676029 0.944579
vt 0.750608 0.945116
vt 0.601413 0.948341
vt 0.601444 0.944042
vt 0.899745 0.950489
vt 0.825158 0.949952
vt 0.825189 0.945653
vt 0.899776 0.946190
vt 0.974325 0.951026
vt 0.974356 0.946727
vt 0.526834 0.947804
vt 0.526865 0.943505
vt 0.297491 0.920725
vt 0.171810 0.849194
vt 0.256176 0.849158
vt 0.047105 0.776039
vt 0.171860 0.702995
vt 0.129742 0.776071
vt 0.298389 0.776110
vt 0.381019 0.776055
vt 0.130476 0.920725
vt 0.130633 0.631407
vt 0.256254 0.702968
vt 0.297575 0.631442
vn -0.8660 0.0000 -0.5000
vn -0.6863 -0.6100 0.3962
vn -0.8660 0.0000 0.5000
vn 0.8660 0.0000 -0.5000
vn -0.0000 -0.6100 -0.7924
vn 0.0000 0.0000 -1.0000
vn -0.0000 0.0000 1.0000
vn 0.6863 -0.6100 0.3962
vn 0.8660 0.0000 0.5000
vn 0.0000 -0.6100 0.7924
vn -0.6863 -0.6100 -0.3962
vn 0.6863 -0.6100 -0.3962
vn -0.4717 -0.8386 0.2723
vn 0.4717 -0.8386 -0.2723
vn -0.0000 -0.8386 -0.5447
vn 0.4717 -0.8386 0.2723
vn -0.0000 -0.8386 0.5447
vn -0.4717 -0.8386 -0.2723
vn -0.7041 -0.5822 0.4065
vn -0.0000 -0.5822 0.8130
vn -0.7041 -0.5822 -0.4065
vn 0.7041 -0.5822 0.4065
vn 0.7041 -0.5822 -0.4065
vn -0.0000 -0.5822 -0.8130
vn 0.0000 -0.9981 -0.0617
vn -0.0534 -0.9981 -0.0308
vn 0.0534 -0.9981 0.0308
vn 0.0534 -0.9981 -0.0308
vn -0.0534 -0.9981 0.0308
vn 0.0000 -0.9981 0.0617
usemtl None
s 1
f 1/1/1 2/2/2 3/3/3
f 4/4/4 5/5/5 6/6/6
f 7/7/7 8/8/8 9/9/9
f 3/3/3 10/10/10 7/7/7
f 6/6/6 11/11/11 1/1/1
f 9/9/9 12/12/12 4/4/4
f 11/11/11 13/13/13 2/2/2
f 5/5/5 14/14/14 15/15/15
f 10/10/10 16/16/16 8/8/8
f 10/10/10 13/13/13 17/17/17
f 5/5/5 18/18/18 11/11/11
f 8/8/8 14/14/14 12/12/12
f 1/1/1 11/11/11 2/2/2
f 4/4/4 12/12/12 5/5/5
f 7/7/7 10/10/10 8/8/8
f 3/3/3 2/2/2 10/10/10
f 6/6/6 5/5/5 11/11/11
f 9/9/9 8/8/8 12/12/12
f 11/11/11 18/18/18 13/13/13
f 5/5/5 12/12/12 14/14/14
f 10/10/10 17/17/17 16/16/16
f 10/10/10 2/2/2 13/13/13
f 5/5/5 15/15/15 18/18/18
f 8/8/8 16/16/16 14/14/14
f 17/19/17 13/20/13 19/21/19 23/22/20
f 13/20/13 18/23/18 24/24/21 19/21/19
f 14/25/14 16/26/16 22/27/22 20/28/23
f 16/26/16 17/19/17 23/22/20 22/27/22
f 15/29/15 14/25/14 20/28/23 21/30/24
f 18/23/18 15/31/15 21/32/24 24/24/21
f 24/33/21 25/34/25 26/35/26
f 20/36/23 27/37/27 28/38/28
f 24/33/21 29/39/29 19/40/19
f 20/36/23 25/34/25 21/41/24
f 22/42/22 30/43/30 27/37/27
f 19/40/19 30/43/30 23/44/20
f 26/35/26 25/34/25 29/39/29
f 27/37/27 30/43/30 28/38/28
f 28/38/28 29/39/29 25/34/25
f 29/39/29 28/38/28 30/43/30
f 24/33/21 21/41/24 25/34/25
f 20/36/23 22/42/22 27/37/27
f 24/33/21 26/35/26 29/39/29
f 20/36/23 28/38/28 25/34/25
f 22/42/22 23/44/20 30/43/30
f 19/40/19 29/39/29 30/43/30
