# Blender v2.79 (sub 0) OBJ File: ''
# www.blender.org
mtllib mountain.mtl
o Circle
v 1.000000 -0.000000 0.577412
v 1.000000 0.129032 -0.577412
v 1.000000 0.000000 -0.577412
v -1.000000 -0.000000 0.577412
v 0.000000 0.129032 1.154825
v 0.000000 -0.000000 1.154825
v 0.000000 0.000000 -1.154825
v -1.000000 0.129032 -0.577412
v -1.000000 0.000000 -0.577412
v 0.000000 0.129032 -1.154825
v 1.000000 0.129032 0.577412
v -1.000000 0.129032 0.577412
v 0.904978 0.129032 -0.522545
v -0.904978 0.129032 0.522545
v 0.000000 0.129032 1.045091
v -0.904978 0.129032 -0.522545
v 0.000000 0.129032 -1.045091
v 0.904978 0.129032 0.522545
v 0.691438 0.300053 0.399244
v 0.000000 0.300015 -0.798521
v -0.691381 0.300028 -0.399343
v 0.000000 0.300053 0.798489
v -0.691438 0.300053 0.399244
v 0.691381 0.300028 -0.399343
v 0.241877 1.377491 -0.000195
v 0.000000 1.377752 -0.339957
v -0.268457 1.377767 -0.184952
v 0.000000 1.377593 0.155043
v -0.268436 1.377695 0.000387
v 0.180464 1.377569 -0.185486
v 0.153820 1.506158 -0.068138
v 0.000000 1.506166 -0.210294
v -0.153822 1.506166 -0.121475
v 0.000000 1.506131 0.020604
v -0.153820 1.506158 -0.068138
v 0.153822 1.506166 -0.121475
v 0.000000 0.755437 -0.546003
v 0.290127 0.703060 -0.342561
v 0.565568 0.459264 0.322720
v -0.565094 0.458879 -0.331578
v -0.565568 0.459264 0.322720
v 0.000000 0.459472 0.650596
v 0.000000 1.082502 -0.443432
v 0.336615 1.082277 0.059944
v -0.363286 1.082525 0.060773
v 0.263969 1.081784 -0.236035
v -0.363299 1.082552 -0.233688
v 0.000000 1.082439 0.270076
v 0.008153 1.554484 -0.061776
v 0.000000 1.554484 -0.130450
v -0.022790 1.554484 -0.105092
v 0.000000 1.554484 -0.048113
v -0.027198 1.554484 -0.061776
v 0.008301 1.554484 -0.105092
vt 0.516009 0.848651
vt 0.486895 0.600201
vt 0.516009 0.580658
vt 0.062621 0.850850
vt 0.290895 0.942636
vt 0.293000 0.976441
vt 0.285630 0.455068
vt 0.093686 0.597875
vt 0.062621 0.582858
vt 0.287735 0.488873
vt 0.484944 0.833634
vt 0.091735 0.831308
vt 0.464474 0.613007
vt 0.114156 0.818502
vt 0.290993 0.921352
vt 0.113848 0.610155
vt 0.287637 0.510157
vt 0.464782 0.821354
vt 0.962125 0.920851
vt 0.860026 0.904460
vt 0.897024 0.879510
vt 0.860183 0.022794
vt 0.906170 0.269159
vt 0.816454 0.091415
vt 0.578749 0.499747
vt 0.805771 0.433275
vt 0.842988 0.499747
vt 0.757202 0.815247
vt 0.822268 0.873994
vt 0.757202 0.908734
vt 0.868450 0.749094
vt 0.825798 0.844594
vt 0.572827 0.021606
vt 0.613888 0.091925
vt 0.861524 0.877196
vt 0.963535 0.814957
vt 0.892054 0.850833
vt 0.878971 0.866909
vt 0.437621 0.268508
vt 0.615964 0.432874
vt 0.866882 0.827070
vt 0.846235 0.857226
vt 0.857305 0.975225
vt 0.864855 0.850406
vt 0.984170 0.272735
vt 0.516644 0.266530
vt 0.878350 0.861390
vt 0.845015 0.863576
vt 0.732678 0.178177
vt 0.669207 0.190837
vt 0.780534 0.388538
vt 0.853111 0.266385
vt 0.568361 0.264493
vt 0.640670 0.387311
vt 0.690072 0.228915
vt 0.723330 0.288945
vt 0.740110 0.252945
vt 0.717910 0.234245
vt 0.668248 0.256387
vt 0.680350 0.284052
vt 0.863593 0.866458
vt 0.860562 0.861408
vt 0.859566 0.865965
vt 0.864187 0.861866
vt 0.863230 0.859365
vt 0.862277 0.867737
vn -1.0000 0.0000 0.0000
vn 0.5000 0.0000 -0.8660
vn 0.5000 0.0000 0.8660
vn -0.5000 0.0000 0.8660
vn -0.5000 0.0000 -0.8660
vn 1.0000 0.0000 0.0000
vn 0.0000 -1.0000 -0.0000
vn -0.8830 -0.3733 -0.2845
vn -0.0214 -0.3664 -0.9302
vn -0.8804 -0.3686 -0.2983
vn -0.4935 -0.8217 0.2849
vn -0.4936 -0.8217 -0.2849
vn -0.4934 -0.8218 0.2850
vn 0.4936 -0.8217 -0.2849
vn -0.0000 -0.8217 -0.5699
vn 0.8127 -0.3357 0.4762
vn 0.8119 -0.3556 -0.4630
vn 0.8113 -0.3978 -0.4285
vn -0.0668 -0.3153 0.9467
vn 0.8117 -0.3392 0.4754
vn 0.0000 -0.8217 0.5699
vn 0.0000 -0.8218 0.5698
vn 0.5993 -0.7205 -0.3488
vn -0.0168 -0.7156 -0.6983
vn -0.0139 -0.7227 -0.6910
vn -0.8264 -0.2416 0.5086
vn -0.7870 -0.3130 0.5316
vn -0.6961 -0.6519 -0.3008
vn -0.7824 -0.5595 -0.2734
vn 0.4935 -0.8217 0.2849
vn -0.0530 -0.7095 0.7027
vn 0.6041 -0.7141 0.3537
vn 0.6073 -0.7142 0.3479
vn -0.0115 -0.4597 -0.8880
vn -0.0865 -0.3411 0.9360
vn -0.6859 -0.5029 0.5259
vn -0.0647 -0.6780 0.7322
vn 0.4934 -0.8218 0.2850
vn -0.8546 -0.3623 0.3721
vn 0.6021 -0.7206 -0.3437
vn -0.0020 -0.5350 0.8449
vn -0.7210 -0.4257 0.5468
vn -0.0571 -0.3908 0.9187
vn 0.6350 -0.6786 -0.3692
vn 0.0000 -0.6202 -0.7845
vn 0.0000 -0.6801 -0.7331
vn -0.6534 -0.6784 0.3361
vn -0.6852 -0.6281 -0.3686
vn 0.7288 -0.5426 0.4176
vn 0.6450 -0.6695 0.3684
vn 0.6916 -0.5915 -0.4144
vn -0.6350 -0.6786 -0.3692
vn -0.0138 -0.8294 -0.5585
vn -0.3930 -0.8702 -0.2970
vn -0.3175 -0.9385 -0.1359
vn -0.0071 -0.8894 0.4571
vn 0.3506 -0.8943 0.2780
vn 0.3250 -0.9333 0.1529
vn 0.3526 -0.9239 -0.1485
vn 0.3401 -0.8753 -0.3438
vn -0.3788 -0.9003 0.2145
vn -0.2900 -0.8188 0.4955
vn -0.2979 -0.9444 0.1390
vn -0.2927 -0.7820 -0.5503
usemtl None
s 1
f 1/1/1 2/2/1 3/3/1
f 4/4/2 5/5/2 6/6/2
f 7/7/3 8/8/3 9/9/3
f 3/3/4 10/10/4 7/7/4
f 6/6/5 11/11/5 1/1/5
f 9/9/6 12/12/6 4/4/6
f 11/11/7 13/13/7 2/2/7
f 5/5/7 14/14/7 15/15/7
f 10/10/7 16/16/7 8/8/7
f 10/10/7 13/13/7 17/17/7
f 5/5/7 18/18/7 11/11/7
f 8/8/7 14/14/7 12/12/7
f 44/19/8 28/20/9 25/21/10
f 13/22/11 19/23/12 24/24/13
f 14/25/14 22/26/15 15/27/15
f 47/28/16 29/29/17 45/30/18
f 43/31/19 27/32/20 47/28/16
f 17/33/21 24/24/13 20/34/22
f 29/29/23 34/35/24 28/20/25
f 46/36/26 25/21/10 30/37/27
f 25/21/28 34/35/24 31/38/29
f 16/39/30 23/40/14 14/25/14
f 1/1/1 11/11/1 2/2/1
f 4/4/2 12/12/2 5/5/2
f 7/7/3 10/10/3 8/8/3
f 3/3/4 2/2/4 10/10/4
f 6/6/5 5/5/5 11/11/5
f 9/9/6 8/8/6 12/12/6
f 11/11/7 18/18/7 13/13/7
f 5/5/7 12/12/7 14/14/7
f 10/10/7 17/17/7 16/16/7
f 10/10/7 2/2/7 13/13/7
f 5/5/7 15/15/7 18/18/7
f 8/8/7 16/16/7 14/14/7
f 26/41/31 33/42/32 27/32/33
f 45/30/18 28/20/9 48/43/34
f 46/36/26 26/41/35 43/31/19
f 30/37/36 32/44/37 26/41/31
f 18/45/12 22/26/15 19/23/12
f 17/33/21 21/46/38 16/39/30
f 30/37/36 31/38/29 36/47/39
f 27/32/33 35/48/40 29/29/23
f 20/34/41 38/49/42 37/50/43
f 23/40/44 42/51/45 22/26/46
f 24/24/47 39/52/48 38/49/42
f 20/34/41 40/53/49 21/46/50
f 21/46/50 41/54/51 23/40/44
f 19/23/52 42/51/45 39/52/48
f 38/49/42 43/55/19 37/50/43
f 41/54/51 48/56/34 42/51/45
f 38/49/42 44/57/8 46/58/26
f 37/50/43 47/59/16 40/53/49
f 40/53/49 45/60/18 41/54/51
f 39/52/48 48/56/34 44/57/8
f 34/35/53 49/61/54 31/38/55
f 32/44/56 51/62/57 33/42/58
f 35/48/59 51/62/57 53/63/60
f 32/44/56 54/64/61 50/65/62
f 31/38/55 54/64/61 36/47/63
f 34/35/53 53/63/60 52/66/64
f 52/66/7 53/63/7 49/61/7
f 50/65/7 54/64/7 51/62/7
f 51/62/7 54/64/7 53/63/7
f 44/19/8 48/43/34 28/20/9
f 13/22/11 18/45/12 19/23/12
f 14/25/14 23/40/14 22/26/15
f 47/28/16 27/32/20 29/29/17
f 43/31/19 26/41/35 27/32/20
f 17/33/21 13/22/11 24/24/13
f 29/29/23 35/48/40 34/35/24
f 46/36/26 44/19/8 25/21/10
f 25/21/28 28/20/25 34/35/24
f 16/39/30 21/46/38 23/40/14
f 26/41/31 32/44/37 33/42/32
f 45/30/18 29/29/17 28/20/9
f 46/36/26 30/37/27 26/41/35
f 30/37/36 36/47/39 32/44/37
f 18/45/12 15/27/15 22/26/15
f 17/33/21 20/34/22 21/46/38
f 30/37/36 25/21/28 31/38/29
f 27/32/33 33/42/32 35/48/40
f 20/34/41 24/24/47 38/49/42
f 23/40/44 41/54/51 42/51/45
f 24/24/47 19/23/52 39/52/48
f 20/34/41 37/50/43 40/53/49
f 21/46/50 40/53/49 41/54/51
f 19/23/52 22/26/46 42/51/45
f 38/49/42 46/58/26 43/55/19
f 41/54/51 45/60/18 48/56/34
f 38/49/42 39/52/48 44/57/8
f 37/50/43 43/55/19 47/59/16
f 40/53/49 47/59/16 45/60/18
f 39/52/48 42/51/45 48/56/34
f 34/35/53 52/66/64 49/61/54
f 32/44/56 50/65/62 51/62/57
f 35/48/59 33/42/58 51/62/57
f 32/44/56 36/47/63 54/64/61
f 31/38/55 49/61/54 54/64/61
f 34/35/53 35/48/59 53/63/60
