# Blender v2.79 (sub 0) OBJ File: ''
# www.blender.org
mtllib waterTile.mtl
o Circle
v 1.000000 -0.000000 0.577412
v 1.000000 0.129032 -0.577412
v 1.000000 0.000000 -0.577412
v -1.000000 -0.000000 0.577412
v 0.000000 0.129032 1.154825
v 0.000000 -0.000000 1.154825
v 0.000000 0.000000 -1.154825
v -1.000000 0.129032 -0.577412
v -1.000000 0.000000 -0.577412
v 0.000000 0.129032 -1.154825
v 1.000000 0.129032 0.577412
v -1.000000 0.129032 0.577412
v 0.904978 0.129032 -0.522545
v -0.904978 0.129032 0.522545
v 0.000000 0.129032 1.045091
v -0.904978 0.129032 -0.522545
v 0.000000 0.129032 -1.045091
v 0.904978 0.129032 0.522545
v -0.000000 0.129032 0.529730
v 0.458710 0.129032 0.264865
v -0.458710 0.129032 -0.264865
v -0.458710 0.129032 0.264865
v 0.458710 0.129032 -0.264865
v -0.000000 0.129032 -0.529730
vt 0.937619 0.349183
vt 0.914708 0.153665
vt 0.937619 0.138286
vt 0.580824 0.350914
vt 0.760465 0.423145
vt 0.762121 0.449748
vt 0.756321 0.039452
vt 0.605271 0.151834
vt 0.580824 0.140017
vt 0.757978 0.066055
vt 0.913172 0.337366
vt 0.603735 0.335535
vt 0.897063 0.163743
vt 0.621379 0.325457
vt 0.760542 0.406395
vt 0.621137 0.161498
vt 0.757901 0.082804
vt 0.897305 0.327702
vt 0.297491 0.920725
vt 0.171810 0.849194
vt 0.256176 0.849158
vt 0.047105 0.776039
vt 0.171860 0.702995
vt 0.129742 0.776071
vt 0.298389 0.776110
vt 0.381019 0.776055
vt 0.130476 0.920725
vt 0.130633 0.631407
vt 0.256254 0.702968
vt 0.297575 0.631442
vn -0.8660 0.0000 -0.5000
vn -0.6863 -0.6100 0.3962
vn -0.8660 0.0000 0.5000
vn 0.8660 0.0000 -0.5000
vn -0.0000 -0.6100 -0.7924
vn 0.0000 0.0000 -1.0000
vn -0.0000 0.0000 1.0000
vn 0.6863 -0.6100 0.3962
vn 0.8660 0.0000 0.5000
vn 0.0000 -0.6100 0.7924
vn -0.6863 -0.6100 -0.3962
vn 0.6863 -0.6100 -0.3962
vn -0.0000 -1.0000 -0.0000
usemtl None
s 1
f 1/1/1 2/2/2 3/3/3
f 4/4/4 5/5/5 6/6/6
f 7/7/7 8/8/8 9/9/9
f 3/3/3 10/10/10 7/7/7
f 6/6/6 11/11/11 1/1/1
f 9/9/9 12/12/12 4/4/4
f 11/11/11 13/13/13 2/2/2
f 5/5/5 14/14/13 15/15/13
f 10/10/10 16/16/13 8/8/8
f 10/10/10 13/13/13 17/17/13
f 5/5/5 18/18/13 11/11/11
f 8/8/8 14/14/13 12/12/12
f 1/1/1 11/11/11 2/2/2
f 4/4/4 12/12/12 5/5/5
f 7/7/7 10/10/10 8/8/8
f 3/3/3 2/2/2 10/10/10
f 6/6/6 5/5/5 11/11/11
f 9/9/9 8/8/8 12/12/12
f 11/11/11 18/18/13 13/13/13
f 5/5/5 12/12/12 14/14/13
f 10/10/10 17/17/13 16/16/13
f 10/10/10 2/2/2 13/13/13
f 5/5/5 15/15/13 18/18/13
f 8/8/8 16/16/13 14/14/13
f 18/19/13 19/20/13 20/21/13
f 14/22/13 21/23/13 22/24/13
f 18/19/13 23/25/13 13/26/13
f 14/22/13 19/20/13 15/27/13
f 16/28/13 24/29/13 21/23/13
f 13/26/13 24/29/13 17/30/13
f 20/21/13 19/20/13 23/25/13
f 21/23/13 24/29/13 22/24/13
f 22/24/13 23/25/13 19/20/13
f 23/25/13 22/24/13 24/29/13
f 18/19/13 15/27/13 19/20/13
f 14/22/13 16/28/13 21/23/13
f 18/19/13 20/21/13 23/25/13
f 14/22/13 22/24/13 19/20/13
f 16/28/13 17/30/13 24/29/13
f 13/26/13 23/25/13 24/29/13
